<svg width="477" height="543" viewBox="0 0 477 543" fill="none" xmlns="http://www.w3.org/2000/svg">
<path d="M383 117.7C318.8 192 237.4 285.4 235.4 287.1C233.7 288.5 208.8 293.1 164.5 300.2C160.7 300.8 157.1 301.7 156.6 302.2C156 302.6 153 303 149.8 303C146.6 303 144 303.3 144 303.7C144 304.2 155.8 310.1 170.3 317C184.7 323.9 196.5 330.1 196.5 330.8C196.5 332.1 193.9 335.1 126.6 411C78.6 465 63.7 481.6 39.8 507.7C31.1 517.1 24 525 24 525.2C24 525.4 42.1 525.7 64.3 525.9L104.5 526.2L174.9 439.7L245.4 353.3L257.4 359C270.2 365.1 364.6 410.6 401.4 428.4C413.4 434.3 423.5 438.8 423.8 438.5C424.1 438.3 423.8 406.7 423.1 368.4C422.5 330 422.2 298.5 422.4 298.3C422.6 298.1 427.1 297.2 432.3 296.2L441.9 294.6L450.8 273.5C455.7 262 459.6 252.4 459.5 252.2C459.4 252 451.1 253.3 441.1 255C431.1 256.6 422.7 258 422.3 258C422 258 422 216.1 422.4 165C422.8 113.8 422.9 72.0002 422.8 72.0002C422.6 72.0002 404.7 92.6002 383 117.7ZM362 239.2C361.4 254.8 360.7 267.6 360.6 267.7C360.2 268.1 310.6 276 309.9 275.8C309.5 275.6 321.1 260.7 335.7 242.7C350.3 224.7 362.5 210.1 362.7 210.4C363 210.7 362.7 223.6 362 239.2ZM358.7 315.2C358.3 319.2 357.8 329.9 357.4 339C357 348.1 356.5 356 356.1 356.6C355.7 357.3 346.9 353.5 332 346.4C319.1 340.1 302.3 332.1 294.7 328.4C287.1 324.7 281.2 321.5 281.4 321.2C281.9 320.8 353.9 308.4 357.9 308.1C359 308 359.2 309.4 358.7 315.2Z" fill="#C02336"/>
</svg>
