<svg width="20" height="20" viewBox="0 0 20 20" fill="none" xmlns="http://www.w3.org/2000/svg">
<path d="M14.5092 10H5.49075C2.46316 10 0 12.8434 0 16.3384V20H20V16.3384C19.9999 12.8434 17.5368 10 14.5092 10ZM19 19H10H1V16.3384C1 13.6019 3.12947 11 5.5 11H14.5092C16.8797 11 19 13.6019 19 16.3384V19Z" fill="black" fill-opacity="0.6"/>
<path d="M10 10C12.757 10 15 7.75697 15 5C15 2.24303 12.757 0 10 0C7.24296 0 5 2.24296 5 5C5 7.75704 7.24303 10 10 10ZM10 1.03216C12.1879 1.03216 13.9678 2.81209 13.9678 5C13.9678 7.18791 12.1879 8.96784 10 8.96784C7.81209 8.96784 6.03216 7.18784 6.03216 5C6.03216 2.81216 7.81209 1.03216 10 1.03216Z" fill="black" fill-opacity="0.6"/>
</svg>
