<svg width="35" height="16" viewBox="0 0 35 16" fill="none" xmlns="http://www.w3.org/2000/svg">
<path d="M34.4545 1.70373L33.3361 0.83258C32.9842 0.560519 32.5159 0.410639 32.0154 0.410639C31.5153 0.410639 31.0464 0.560519 30.6945 0.83258L17.9372 10.7019L5.16517 0.821629C4.81376 0.549568 4.34494 0.399902 3.84475 0.399902C3.34456 0.399902 2.87546 0.549568 2.52377 0.821629L1.40515 1.68741C0.676798 2.25043 0.676798 3.16753 1.40515 3.73055L16.6118 15.5365C16.9632 15.8084 17.4314 15.9999 17.9361 15.9999H17.9419C18.4424 15.9999 18.9106 15.8081 19.262 15.5365L34.4545 3.76255C34.8064 3.4907 34.9996 3.1175 35.0002 2.73056C35.0002 2.34341 34.8064 1.97536 34.4545 1.70373Z" fill="black"/>
</svg>
