<svg width="687" height="247" viewBox="0 0 687 247" fill="none" xmlns="http://www.w3.org/2000/svg">
<g clip-path="url(#clip0)">
<path d="M350.328 88.7525C340.727 110.941 332.833 132.082 332.833 135.431C332.833 151.549 352.674 160.55 384.037 158.457C407.293 156.991 420.734 151.968 433.322 140.246C442.496 131.873 445.483 126.43 461.485 89.3804L479.407 48.144H461.485C443.99 48.144 443.563 48.3533 441.43 53.7957C431.189 80.5889 413.694 117.011 407.933 123.5C400.252 132.501 389.585 136.687 380.41 134.175C375.29 132.919 374.437 131.454 373.796 124.128C373.37 117.22 376.143 108.638 387.878 81.8448L402.813 48.144H385.318H367.823L350.328 88.7525Z" fill="#0A3370"/>
<path d="M263.919 79.5421C256.878 96.4971 246.637 120.778 240.877 133.128C235.116 145.478 230.422 155.945 230.422 156.363C230.422 156.782 250.051 156.991 273.947 156.991H317.257L321.311 147.153C323.658 141.501 325.792 136.478 326.005 135.64C326.432 134.594 315.764 133.966 302.109 133.966C288.455 133.966 277.36 133.128 277.36 132.082C277.36 131.035 285.041 112.196 294.428 90.2175C303.816 68.2387 311.497 49.8183 311.497 49.1904C311.497 48.5624 303.603 48.1437 294.002 48.1437L276.293 48.3531L263.919 79.5421Z" fill="#0A3370"/>
<path d="M506.928 49.3995C494.34 53.7952 485.38 61.5401 480.046 72.4249C475.779 80.7978 475.565 83.1003 477.699 90.0079C478.979 94.4037 483.459 102.149 487.727 106.963C502.235 123.918 502.235 130.198 488.367 134.175C481.539 136.268 477.699 136.059 467.031 133.128C459.777 131.244 453.59 129.988 453.377 130.198C452.95 130.616 451.243 136.268 449.536 142.966C445.482 158.038 445.269 158.038 475.779 158.038C495.194 158.038 499.461 157.41 507.782 153.014C520.156 146.734 526.557 141.083 531.464 131.454C538.291 118.266 536.158 110.94 520.583 93.1478C510.769 82.0537 510.129 75.9834 518.449 71.5876C523.57 68.8664 539.998 69.2851 549.386 72.2156C553.226 73.2622 554.08 72.0062 557.067 61.1215L560.48 48.5622L554.08 47.3063C542.772 45.0037 515.463 46.2597 506.928 49.3995Z" fill="#0A3370"/>
<path d="M60.5924 49.3994C48.0045 53.7952 39.0436 61.5401 33.7098 72.4248C29.4427 80.7977 29.2294 83.1003 31.3629 90.0079C32.643 94.4037 37.1235 102.149 41.3905 106.963C55.8986 123.918 55.8986 130.198 42.0306 134.175C35.2033 136.268 31.3629 136.059 20.6952 133.128C13.4412 131.244 7.2539 129.988 7.04054 130.198C6.61384 130.616 4.907 136.268 3.20017 142.966C-0.853555 158.038 -1.06691 158.038 29.4427 158.038C48.8579 158.038 53.125 157.41 61.4458 153.014C73.8204 146.734 80.221 141.082 85.1281 131.454C91.9554 118.266 89.8219 110.94 74.2471 93.1477C64.4328 82.0537 63.7927 75.9833 72.1135 71.5876C77.234 68.8664 93.6623 69.285 103.05 72.2155C106.89 73.2621 107.744 72.0062 110.731 61.1215L114.144 48.5621L107.744 47.3062C96.4359 45.0036 69.1266 46.2596 60.5924 49.3994Z" fill="#0A3370"/>
<path d="M201.363 25.6816C168.024 64.0324 125.753 112.242 124.714 113.119C123.831 113.842 110.901 116.216 87.8959 119.881C85.9226 120.191 84.0531 120.655 83.7935 120.913C83.4819 121.12 81.924 121.326 80.2623 121.326C78.6005 121.326 77.2503 121.481 77.2503 121.688C77.2503 121.946 83.378 124.991 90.9079 128.553C98.3858 132.114 104.513 135.314 104.513 135.676C104.513 136.347 103.163 137.895 68.2145 177.072C43.2882 204.945 35.5507 213.513 23.1395 226.985C18.6216 231.837 14.9346 235.914 14.9346 236.018C14.9346 236.121 24.3339 236.276 35.8623 236.379L56.7381 236.534L93.2966 191.886L129.907 147.289L136.139 150.231C142.786 153.38 191.807 176.865 210.918 186.053C217.149 189.098 222.394 191.421 222.55 191.266C222.706 191.163 222.55 174.852 222.186 155.083C221.875 135.263 221.719 119.004 221.823 118.9C221.927 118.797 224.264 118.333 226.964 117.816L231.949 116.991L236.571 106.1C239.116 100.164 241.141 95.2086 241.089 95.1054C241.037 95.0021 236.727 95.6731 231.534 96.5506C226.341 97.3765 221.979 98.0991 221.771 98.0991C221.615 98.0991 221.615 76.4719 221.823 50.0961C222.031 23.6686 222.083 2.09301 222.031 2.09301C221.927 2.09301 212.631 12.7259 201.363 25.6816ZM190.457 88.3953C190.146 96.4474 189.782 103.054 189.73 103.106C189.523 103.312 163.765 107.39 163.402 107.287C163.194 107.184 169.218 99.4927 176.8 90.2018C184.382 80.9109 190.717 73.3749 190.821 73.5298C190.977 73.6847 190.821 80.3431 190.457 88.3953ZM188.744 127.624C188.536 129.688 188.276 135.211 188.069 139.908C187.861 144.605 187.601 148.683 187.393 148.993C187.186 149.354 182.616 147.393 174.878 143.728C168.179 140.476 159.455 136.347 155.509 134.437C151.562 132.527 148.498 130.875 148.602 130.721C148.862 130.514 186.251 124.114 188.328 123.959C188.899 123.907 189.003 124.63 188.744 127.624Z" fill="#C02336"/>
<path d="M100.584 237.257V201.71H112.206C116.063 201.71 118.96 202.507 120.897 204.103C122.85 205.698 123.827 208.058 123.827 211.183C123.827 212.843 123.355 214.316 122.411 215.602C121.467 216.871 120.181 217.856 118.553 218.556C120.474 219.093 121.987 220.118 123.094 221.632C124.217 223.129 124.779 224.92 124.779 227.003C124.779 230.193 123.745 232.7 121.678 234.522C119.611 236.345 116.69 237.257 112.914 237.257H100.584ZM105.272 220.631V233.424H113.011C115.192 233.424 116.909 232.862 118.163 231.739C119.432 230.6 120.067 229.037 120.067 227.052C120.067 222.771 117.739 220.631 113.084 220.631H105.272ZM105.272 216.871H112.352C114.403 216.871 116.039 216.358 117.259 215.333C118.496 214.308 119.115 212.916 119.115 211.158C119.115 209.205 118.545 207.789 117.406 206.91C116.266 206.015 114.533 205.567 112.206 205.567H105.272V216.871ZM129.833 223.805C129.833 221.217 130.337 218.889 131.346 216.822C132.372 214.755 133.788 213.16 135.594 212.037C137.417 210.914 139.492 210.353 141.82 210.353C145.417 210.353 148.322 211.598 150.536 214.088C152.765 216.578 153.88 219.89 153.88 224.024V224.342C153.88 226.913 153.384 229.225 152.391 231.275C151.415 233.31 150.007 234.897 148.167 236.036C146.345 237.175 144.245 237.745 141.869 237.745C138.288 237.745 135.383 236.5 133.153 234.01C130.939 231.52 129.833 228.224 129.833 224.122V223.805ZM134.374 224.342C134.374 227.271 135.049 229.623 136.4 231.397C137.767 233.172 139.59 234.059 141.869 234.059C144.164 234.059 145.986 233.163 147.337 231.373C148.688 229.566 149.364 227.044 149.364 223.805C149.364 220.908 148.672 218.564 147.289 216.773C145.921 214.967 144.098 214.063 141.82 214.063C139.59 214.063 137.792 214.951 136.424 216.725C135.057 218.499 134.374 221.038 134.374 224.342ZM164.452 237.257H159.935V199.757H164.452V237.257ZM176.61 237.257H172.093V210.841H176.61V237.257ZM171.727 203.834C171.727 203.102 171.947 202.483 172.386 201.979C172.842 201.474 173.509 201.222 174.388 201.222C175.267 201.222 175.934 201.474 176.39 201.979C176.846 202.483 177.074 203.102 177.074 203.834C177.074 204.566 176.846 205.177 176.39 205.665C175.934 206.153 175.267 206.397 174.388 206.397C173.509 206.397 172.842 206.153 172.386 205.665C171.947 205.177 171.727 204.566 171.727 203.834ZM182.787 223.829C182.787 219.711 183.739 216.44 185.643 214.015C187.547 211.573 190.07 210.353 193.211 210.353C196.434 210.353 198.949 211.492 200.755 213.771L200.975 210.841H205.101V236.622C205.101 240.04 204.084 242.734 202.049 244.703C200.031 246.673 197.313 247.657 193.895 247.657C191.991 247.657 190.127 247.25 188.304 246.437C186.481 245.623 185.09 244.508 184.129 243.092L186.473 240.382C188.41 242.774 190.778 243.971 193.578 243.971C195.775 243.971 197.484 243.352 198.705 242.115C199.942 240.878 200.56 239.137 200.56 236.891V234.62C198.753 236.703 196.288 237.745 193.163 237.745C190.07 237.745 187.564 236.5 185.643 234.01C183.739 231.52 182.787 228.126 182.787 223.829ZM187.328 224.342C187.328 227.32 187.938 229.664 189.159 231.373C190.379 233.066 192.088 233.912 194.286 233.912C197.134 233.912 199.225 232.618 200.56 230.03V217.97C199.177 215.447 197.101 214.186 194.334 214.186C192.137 214.186 190.42 215.04 189.183 216.749C187.946 218.458 187.328 220.989 187.328 224.342ZM228.246 237.257C227.985 236.736 227.774 235.808 227.611 234.474C225.511 236.655 223.005 237.745 220.091 237.745C217.487 237.745 215.347 237.013 213.67 235.548C212.01 234.067 211.18 232.195 211.18 229.933C211.18 227.182 212.222 225.05 214.305 223.536C216.405 222.006 219.351 221.241 223.143 221.241H227.538V219.166C227.538 217.587 227.066 216.334 226.122 215.406C225.178 214.462 223.786 213.99 221.947 213.99C220.335 213.99 218.985 214.397 217.894 215.211C216.804 216.025 216.258 217.009 216.258 218.165H211.717C211.717 216.847 212.181 215.577 213.109 214.356C214.053 213.119 215.322 212.143 216.917 211.427C218.529 210.711 220.295 210.353 222.215 210.353C225.259 210.353 227.643 211.118 229.369 212.647C231.094 214.161 231.989 216.253 232.054 218.922V231.08C232.054 233.505 232.363 235.434 232.982 236.866V237.257H228.246ZM220.75 233.814C222.167 233.814 223.509 233.448 224.779 232.716C226.048 231.983 226.968 231.031 227.538 229.859V224.439H223.998C218.464 224.439 215.697 226.059 215.697 229.298C215.697 230.714 216.169 231.821 217.113 232.618C218.057 233.416 219.269 233.814 220.75 233.814ZM238.036 223.829C238.036 219.776 238.996 216.521 240.917 214.063C242.837 211.59 245.352 210.353 248.46 210.353C251.553 210.353 254.002 211.41 255.809 213.526V199.757H260.326V237.257H256.175L255.956 234.425C254.149 236.638 251.634 237.745 248.412 237.745C245.352 237.745 242.853 236.492 240.917 233.985C238.996 231.479 238.036 228.207 238.036 224.171V223.829ZM242.552 224.342C242.552 227.337 243.171 229.68 244.408 231.373C245.645 233.066 247.354 233.912 249.535 233.912C252.399 233.912 254.491 232.626 255.809 230.055V217.921C254.458 215.431 252.383 214.186 249.583 214.186C247.37 214.186 245.645 215.04 244.408 216.749C243.171 218.458 242.552 220.989 242.552 224.342ZM271.605 210.841L271.727 213.771C273.664 211.492 276.276 210.353 279.564 210.353C283.259 210.353 285.773 211.769 287.108 214.601C287.987 213.331 289.126 212.306 290.526 211.524C291.942 210.743 293.61 210.353 295.531 210.353C301.325 210.353 304.271 213.421 304.369 219.557V237.257H299.852V219.825C299.852 217.937 299.421 216.529 298.558 215.602C297.695 214.658 296.247 214.186 294.212 214.186C292.536 214.186 291.144 214.69 290.038 215.699C288.931 216.692 288.288 218.035 288.109 219.728V237.257H283.568V219.947C283.568 216.106 281.688 214.186 277.928 214.186C274.966 214.186 272.94 215.447 271.849 217.97V237.257H267.333V210.841H271.605ZM316.112 237.257H311.595V210.841H316.112V237.257ZM311.229 203.834C311.229 203.102 311.449 202.483 311.888 201.979C312.344 201.474 313.011 201.222 313.89 201.222C314.769 201.222 315.436 201.474 315.892 201.979C316.348 202.483 316.576 203.102 316.576 203.834C316.576 204.566 316.348 205.177 315.892 205.665C315.436 206.153 314.769 206.397 313.89 206.397C313.011 206.397 312.344 206.153 311.888 205.665C311.449 205.177 311.229 204.566 311.229 203.834ZM327.635 210.841L327.782 214.161C329.8 211.622 332.437 210.353 335.692 210.353C341.275 210.353 344.09 213.502 344.139 219.801V237.257H339.623V219.776C339.606 217.872 339.167 216.464 338.304 215.553C337.458 214.641 336.131 214.186 334.325 214.186C332.86 214.186 331.574 214.576 330.467 215.357C329.361 216.139 328.498 217.164 327.879 218.434V237.257H323.363V210.841H327.635ZM355.858 237.257H351.341V210.841H355.858V237.257ZM350.975 203.834C350.975 203.102 351.195 202.483 351.634 201.979C352.09 201.474 352.757 201.222 353.636 201.222C354.515 201.222 355.182 201.474 355.638 201.979C356.094 202.483 356.322 203.102 356.322 203.834C356.322 204.566 356.094 205.177 355.638 205.665C355.182 206.153 354.515 206.397 353.636 206.397C352.757 206.397 352.09 206.153 351.634 205.665C351.195 205.177 350.975 204.566 350.975 203.834ZM378.49 230.25C378.49 229.029 378.026 228.085 377.098 227.418C376.187 226.734 374.583 226.148 372.289 225.66C370.01 225.172 368.195 224.586 366.844 223.902C365.51 223.219 364.517 222.405 363.866 221.461C363.231 220.517 362.914 219.394 362.914 218.092C362.914 215.927 363.825 214.096 365.648 212.599C367.487 211.101 369.831 210.353 372.679 210.353C375.674 210.353 378.099 211.126 379.955 212.672C381.826 214.218 382.762 216.196 382.762 218.604H378.221C378.221 217.368 377.692 216.301 376.634 215.406C375.593 214.511 374.274 214.063 372.679 214.063C371.035 214.063 369.75 214.422 368.822 215.138C367.894 215.854 367.43 216.79 367.43 217.945C367.43 219.036 367.861 219.858 368.724 220.411C369.587 220.965 371.141 221.493 373.387 221.998C375.65 222.503 377.481 223.105 378.88 223.805C380.28 224.505 381.314 225.351 381.981 226.344C382.665 227.32 383.006 228.517 383.006 229.933C383.006 232.293 382.062 234.189 380.174 235.621C378.286 237.037 375.837 237.745 372.826 237.745C370.71 237.745 368.838 237.371 367.21 236.622C365.583 235.873 364.305 234.832 363.377 233.497C362.466 232.146 362.01 230.689 362.01 229.127H366.527C366.608 230.641 367.21 231.845 368.333 232.74C369.473 233.619 370.97 234.059 372.826 234.059C374.535 234.059 375.902 233.717 376.927 233.033C377.969 232.333 378.49 231.406 378.49 230.25ZM395.018 204.444V210.841H399.95V214.332H395.018V230.714C395.018 231.772 395.238 232.569 395.677 233.106C396.117 233.627 396.865 233.888 397.923 233.888C398.444 233.888 399.16 233.79 400.072 233.595V237.257C398.884 237.582 397.728 237.745 396.605 237.745C394.587 237.745 393.065 237.135 392.04 235.914C391.014 234.693 390.501 232.96 390.501 230.714V214.332H385.692V210.841H390.501V204.444H395.018ZM418.016 214.894C417.333 214.78 416.592 214.723 415.794 214.723C412.832 214.723 410.822 215.984 409.764 218.507V237.257H405.248V210.841H409.642L409.715 213.893C411.196 211.533 413.296 210.353 416.014 210.353C416.893 210.353 417.56 210.466 418.016 210.694V214.894ZM437.523 237.257C437.263 236.736 437.051 235.808 436.888 234.474C434.789 236.655 432.282 237.745 429.369 237.745C426.764 237.745 424.624 237.013 422.948 235.548C421.288 234.067 420.458 232.195 420.458 229.933C420.458 227.182 421.499 225.05 423.583 223.536C425.682 222.006 428.628 221.241 432.42 221.241H436.815V219.166C436.815 217.587 436.343 216.334 435.399 215.406C434.455 214.462 433.063 213.99 431.224 213.99C429.613 213.99 428.262 214.397 427.171 215.211C426.081 216.025 425.536 217.009 425.536 218.165H420.995C420.995 216.847 421.458 215.577 422.386 214.356C423.33 213.119 424.6 212.143 426.195 211.427C427.806 210.711 429.572 210.353 431.493 210.353C434.536 210.353 436.921 211.118 438.646 212.647C440.371 214.161 441.266 216.253 441.332 218.922V231.08C441.332 233.505 441.641 235.434 442.259 236.866V237.257H437.523ZM430.028 233.814C431.444 233.814 432.787 233.448 434.056 232.716C435.326 231.983 436.245 231.031 436.815 229.859V224.439H433.275C427.741 224.439 424.974 226.059 424.974 229.298C424.974 230.714 425.446 231.821 426.39 232.618C427.334 233.416 428.547 233.814 430.028 233.814ZM454.54 204.444V210.841H459.471V214.332H454.54V230.714C454.54 231.772 454.759 232.569 455.199 233.106C455.638 233.627 456.387 233.888 457.445 233.888C457.966 233.888 458.682 233.79 459.593 233.595V237.257C458.405 237.582 457.25 237.745 456.126 237.745C454.108 237.745 452.586 237.135 451.561 235.914C450.536 234.693 450.023 232.96 450.023 230.714V214.332H445.213V210.841H450.023V204.444H454.54ZM469.676 237.257H465.16V210.841H469.676V237.257ZM464.793 203.834C464.793 203.102 465.013 202.483 465.453 201.979C465.908 201.474 466.576 201.222 467.455 201.222C468.333 201.222 469.001 201.474 469.457 201.979C469.912 202.483 470.14 203.102 470.14 203.834C470.14 204.566 469.912 205.177 469.457 205.665C469.001 206.153 468.333 206.397 467.455 206.397C466.576 206.397 465.908 206.153 465.453 205.665C465.013 205.177 464.793 204.566 464.793 203.834ZM475.731 223.805C475.731 221.217 476.236 218.889 477.245 216.822C478.27 214.755 479.686 213.16 481.493 212.037C483.316 210.914 485.391 210.353 487.718 210.353C491.315 210.353 494.221 211.598 496.434 214.088C498.664 216.578 499.779 219.89 499.779 224.024V224.342C499.779 226.913 499.282 229.225 498.29 231.275C497.313 233.31 495.905 234.897 494.066 236.036C492.243 237.175 490.143 237.745 487.767 237.745C484.186 237.745 481.281 236.5 479.051 234.01C476.838 231.52 475.731 228.224 475.731 224.122V223.805ZM480.272 224.342C480.272 227.271 480.947 229.623 482.298 231.397C483.666 233.172 485.488 234.059 487.767 234.059C490.062 234.059 491.885 233.163 493.236 231.373C494.587 229.566 495.262 227.044 495.262 223.805C495.262 220.908 494.57 218.564 493.187 216.773C491.82 214.967 489.997 214.063 487.718 214.063C485.488 214.063 483.69 214.951 482.323 216.725C480.956 218.499 480.272 221.038 480.272 224.342ZM509.715 210.841L509.862 214.161C511.88 211.622 514.517 210.353 517.772 210.353C523.355 210.353 526.17 213.502 526.219 219.801V237.257H521.703V219.776C521.686 217.872 521.247 216.464 520.384 215.553C519.538 214.641 518.211 214.186 516.405 214.186C514.94 214.186 513.654 214.576 512.547 215.357C511.441 216.139 510.578 217.164 509.959 218.434V237.257H505.443V210.841H509.715ZM565.77 227.979H550.877L547.533 237.257H542.699L556.273 201.71H560.375L573.973 237.257H569.164L565.77 227.979ZM552.293 224.122H564.378L558.324 207.496L552.293 224.122ZM582.298 210.841L582.42 213.771C584.357 211.492 586.97 210.353 590.257 210.353C593.952 210.353 596.467 211.769 597.801 214.601C598.68 213.331 599.819 212.306 601.219 211.524C602.635 210.743 604.304 210.353 606.224 210.353C612.018 210.353 614.964 213.421 615.062 219.557V237.257H610.545V219.825C610.545 217.937 610.114 216.529 609.251 215.602C608.389 214.658 606.94 214.186 604.906 214.186C603.229 214.186 601.838 214.69 600.731 215.699C599.624 216.692 598.981 218.035 598.802 219.728V237.257H594.261V219.947C594.261 216.106 592.381 214.186 588.622 214.186C585.659 214.186 583.633 215.447 582.542 217.97V237.257H578.026V210.841H582.298ZM644.261 224.342C644.261 228.378 643.333 231.625 641.478 234.083C639.623 236.524 637.132 237.745 634.007 237.745C630.671 237.745 628.091 236.565 626.268 234.205L626.048 237.257H621.898V199.757H626.415V213.746C628.237 211.484 630.752 210.353 633.958 210.353C637.165 210.353 639.68 211.565 641.502 213.99C643.342 216.415 644.261 219.736 644.261 223.951V224.342ZM639.745 223.829C639.745 220.753 639.151 218.377 637.962 216.7C636.774 215.024 635.065 214.186 632.835 214.186C629.857 214.186 627.717 215.569 626.415 218.336V229.762C627.798 232.529 629.955 233.912 632.884 233.912C635.049 233.912 636.734 233.074 637.938 231.397C639.142 229.721 639.745 227.198 639.745 223.829ZM666.283 237.257C666.022 236.736 665.811 235.808 665.648 234.474C663.548 236.655 661.042 237.745 658.128 237.745C655.524 237.745 653.384 237.013 651.708 235.548C650.047 234.067 649.217 232.195 649.217 229.933C649.217 227.182 650.259 225.05 652.342 223.536C654.442 222.006 657.388 221.241 661.18 221.241H665.575V219.166C665.575 217.587 665.103 216.334 664.159 215.406C663.215 214.462 661.823 213.99 659.984 213.99C658.373 213.99 657.022 214.397 655.931 215.211C654.841 216.025 654.295 217.009 654.295 218.165H649.754C649.754 216.847 650.218 215.577 651.146 214.356C652.09 213.119 653.36 212.143 654.955 211.427C656.566 210.711 658.332 210.353 660.252 210.353C663.296 210.353 665.681 211.118 667.406 212.647C669.131 214.161 670.026 216.253 670.091 218.922V231.08C670.091 233.505 670.401 235.434 671.019 236.866V237.257H666.283ZM658.788 233.814C660.204 233.814 661.546 233.448 662.816 232.716C664.085 231.983 665.005 231.031 665.575 229.859V224.439H662.035C656.501 224.439 653.734 226.059 653.734 229.298C653.734 230.714 654.206 231.821 655.15 232.618C656.094 233.416 657.306 233.814 658.788 233.814Z" fill="#252624"/>
</g>
<defs>
<clipPath id="clip0">
<rect width="687" height="247" fill="white"/>
</clipPath>
</defs>
</svg>
