<svg width="14" height="30" viewBox="0 0 14 30" fill="none" xmlns="http://www.w3.org/2000/svg">
<path d="M1.10127 0.479517L0.365459 1.46221C0.135664 1.77148 0.00906867 2.18294 0.00906867 2.6227C0.00906867 3.06222 0.135664 3.47417 0.365459 3.78345L8.70155 14.9933L0.356209 26.2161C0.126414 26.5248 0 26.9368 0 27.3763C0 27.8158 0.126414 28.228 0.356209 28.5371L1.08749 29.52C1.56304 30.16 2.33767 30.16 2.81322 29.52L12.7851 16.1579C13.0147 15.8492 13.1765 15.4377 13.1765 14.9943V14.9891C13.1765 14.5494 13.0145 14.1379 12.7851 13.8291L2.84024 0.479517C2.61063 0.170246 2.29541 0.000486255 1.96858 -1.19209e-07C1.64157 -1.19209e-07 1.33071 0.170246 1.10127 0.479517Z" fill="black"/>
</svg>
