<svg width="190" height="163" viewBox="0 0 190 163" fill="none" xmlns="http://www.w3.org/2000/svg">
<g clip-path="url(#clip0)">
<path d="M160.636 23.1625C123.363 -7.72085 64.2716 -7.72085 26.9989 23.1625C-9.90405 55.9415 -8.84568 108.178 29.3629 139.837C66.6356 170.721 125.727 170.721 163 139.837C199.903 107.058 198.845 54.8214 160.636 23.1625ZM158.479 135.959L158.447 135.932C123.374 165.993 66.5353 165.971 31.4939 135.882C-3.54741 105.793 -3.52149 57.0312 31.5518 26.9695C66.6251 -3.09234 123.464 -3.0701 158.505 27.0188C175.337 41.4716 184.785 61.0696 184.769 81.4998C184.771 101.926 175.314 121.515 158.479 135.959Z" fill="black" fill-opacity="0.8"/>
<path d="M149.022 104.989L131.004 89.586C126.915 86.0694 120.277 86.0627 116.178 89.5708C116.172 89.576 116.166 89.5808 116.16 89.586L105.837 98.4423C105.056 99.1141 103.825 99.2069 102.919 98.6625C97.2691 95.2749 91.9798 91.4641 87.1136 87.2756C82.7554 83.545 78.7462 79.5264 75.1229 75.2559C74.4661 74.4888 74.5615 73.4252 75.3472 72.7531L85.9271 63.6766C90.0119 60.1656 90.0119 54.4805 85.9271 50.9695L67.9092 35.512C63.7572 32.1067 57.2173 32.1067 53.0653 35.512L47.3586 40.4077C38.7402 47.7182 35.6635 58.5733 39.4075 68.4624C42.2013 75.6975 46.1503 82.5655 51.1416 88.8707C55.6351 94.6512 60.7903 100.032 66.5307 104.934C72.7717 110.326 79.6847 115.113 87.1456 119.208C95.3473 123.8 104.353 127.235 113.82 129.385C116.254 129.9 118.751 130.158 121.258 130.155C129.851 130.11 138.072 127.143 144.117 121.904L149.022 117.695C153.107 114.185 153.107 108.5 149.022 104.989ZM144.482 113.944C144.478 113.948 144.474 113.952 144.469 113.955L144.501 113.873L139.596 118.081C133.293 123.556 124.114 125.809 115.39 124.022C106.6 122.004 98.2444 118.791 90.6393 114.505C83.5737 110.632 77.0258 106.103 71.1144 101.001C65.6752 96.3685 60.7888 91.2823 56.5267 85.818C51.8649 79.9383 48.175 73.5331 45.562 66.7847C42.5664 58.857 45.0488 50.1579 51.9742 44.3136L57.6809 39.4179C59.2675 38.0506 61.8456 38.0457 63.439 39.4069C63.4432 39.4104 63.4477 39.414 63.4518 39.4179L81.4697 54.8753C83.0635 56.2365 83.0691 58.4483 81.4825 59.8152C81.4784 59.8188 81.4742 59.8223 81.4697 59.8262L70.8897 68.9027C67.854 71.4787 67.4723 75.5721 69.9922 78.5294C73.8188 83.0348 78.0534 87.2743 82.6562 91.2092C87.788 95.6307 93.367 99.653 99.3276 103.229C102.772 105.29 107.441 104.942 110.42 102.404L120.648 93.4922C122.234 92.1249 124.812 92.12 126.406 93.4812C126.41 93.4847 126.414 93.4883 126.419 93.4922L144.469 109.005C146.063 110.366 146.069 112.577 144.482 113.944Z" fill="black" fill-opacity="0.8"/>
</g>
<defs>
<clipPath id="clip0">
<rect width="190" height="163" rx="10" fill="white"/>
</clipPath>
</defs>
</svg>
