<svg width="15" height="30" viewBox="0 0 15 30" fill="none" xmlns="http://www.w3.org/2000/svg">
<path d="M12.8322 29.5205L13.614 28.5378C13.8582 28.2285 13.9927 27.8171 13.9927 27.3773C13.9927 26.9378 13.8582 26.5258 13.614 26.2166L4.75698 15.0067L13.6238 3.78393C13.868 3.47515 14.0023 3.0632 14.0023 2.62368C14.0023 2.18416 13.868 1.77197 13.6238 1.46294L12.8469 0.480004C12.3416 -0.160001 11.5186 -0.160001 11.0133 0.480004L0.418253 13.8421C0.174291 14.1508 0.00239742 14.5623 0.00239742 15.0057V15.0109C0.00239742 15.4506 0.174483 15.8621 0.418253 16.1709L10.9846 29.5205C11.2285 29.8298 11.5635 29.9995 11.9107 30C12.2582 30 12.5885 29.8298 12.8322 29.5205Z" fill="black"/>
</svg>
