<svg width="50" height="50" viewBox="0 0 50 50" fill="none" xmlns="http://www.w3.org/2000/svg">
<path d="M49.3878 46.449L37.3673 34.4286C40.3469 30.7959 42.1429 26.1429 42.1429 21.0714C42.1429 9.43878 32.7041 0 21.0714 0C9.42857 0 0 9.43878 0 21.0714C0 32.7041 9.42857 42.1429 21.0714 42.1429C26.1429 42.1429 30.7857 40.3571 34.4184 37.3776L46.4388 49.3878C47.2551 50.2041 48.5714 50.2041 49.3878 49.3878C50.2041 48.5816 50.2041 47.2551 49.3878 46.449ZM21.0714 37.949C11.7551 37.949 4.18367 30.3776 4.18367 21.0714C4.18367 11.7653 11.7551 4.18367 21.0714 4.18367C30.3776 4.18367 37.9592 11.7653 37.9592 21.0714C37.9592 30.3776 30.3776 37.949 21.0714 37.949Z" fill="black" fill-opacity="0.6"/>
</svg>
